<?xml version="1.0" encoding="utf-8"?>
<!-- Generator: Adobe Illustrator 19.2.1, SVG Export Plug-In . SVG Version: 6.00 Build 0)  -->
<svg version="1.1" id="Layer_1" xmlns="http://www.w3.org/2000/svg" xmlns:xlink="http://www.w3.org/1999/xlink" x="0px" y="0px"
	 viewBox="0 0 60 60" style="enable-background:new 0 0 60 60;" xml:space="preserve">
<style type="text/css">
	.st0{fill:#29ABE2;}
</style>
<path class="st0" d="M54.2,28.1l-9.5-9.5l-2.9-2.9l-1,1L39,18.5l-5.9,5.9L29.5,28L27.6,30l-1,1l2.9,2.9l3.6,3.6l2.9-2.9L32.4,31
	l9.5-9.5l7.5,7.5c0.6,0.6,0.6,1.6,0,2.1L31.1,49.5c-0.6,0.6-1.6,0.6-2.1,0L10.7,31.1c-0.6-0.6-0.6-1.6,0-2.1L29,10.7
	c0.6-0.6,1.6-0.6,2.1,0l5,5l2.8-2.8l-7-7c-1-1-2.7-1-3.8,0L5.8,28.1c-1,1-1,2.7,0,3.8l22.3,22.3c1,1,2.7,1,3.8,0l22.3-22.3
	C55.3,30.8,55.3,29.2,54.2,28.1z"/>
</svg>
